<?xml version="1.0" encoding="UTF-8" standalone="no"?>
<svg xmlns="http://www.w3.org/2000/svg"
    xmlns:xlink="http://www.w3.org/1999/xlink" style="isolation:isolate" viewBox="0 0 850.394 850.394" width="850.394pt" height="850.394pt">
    <defs>
        <clipPath id="_clipPath_Lyrhqquv7FkGnNz7RmW6zn45ZARmnL8L">
            <rect width="850.394" height="850.394"/>
        </clipPath>
    </defs>
    <g clip-path="url(#_clipPath_Lyrhqquv7FkGnNz7RmW6zn45ZARmnL8L)">
        <path d=" M 653.885 463.311 C 603.342 463.311 554.868 483.39 519.13 519.126 C 483.389 554.867 463.312 603.341 463.312 653.886 L 539.542 653.886 C 539.542 623.559 551.588 594.473 573.032 573.029 C 594.476 551.587 623.56 539.543 653.885 539.543 L 653.885 463.311 L 653.885 463.311 Z  M 516.889 257.638 L 425.197 196.508 L 196.509 348.966 L 196.509 653.886 L 234.624 653.886 C 234.624 475.136 347.952 316.043 516.889 257.638 L 516.889 257.638 Z  M 602.514 314.72 C 434.813 340.121 310.852 484.271 310.852 653.886 L 387.082 653.886 C 387.082 583.125 415.192 515.264 465.227 465.229 C 515.262 415.191 583.124 387.081 653.885 387.081 L 653.885 348.966 L 602.514 314.72 L 602.514 314.72 Z " fill-rule="evenodd" fill="rgb(100,57,208)"/>
    </g>
</svg>