<?xml version="1.0" encoding="UTF-8"?>
<!DOCTYPE svg PUBLIC "-//W3C//DTD SVG 1.1//EN" "http://www.w3.org/Graphics/SVG/1.1/DTD/svg11.dtd">
<!-- Creator: CorelDRAW 2018 -->
<svg xmlns="http://www.w3.org/2000/svg" xml:space="preserve" width="210mm" height="297mm" version="1.1" style="shape-rendering:geometricPrecision; text-rendering:geometricPrecision; image-rendering:optimizeQuality; fill-rule:evenodd; clip-rule:evenodd"
viewBox="0 0 21000 29700"
 xmlns:xlink="http://www.w3.org/1999/xlink">
 <defs>
  <style type="text/css">
   <![CDATA[
    .fil0 {fill:#222222}
    .fil1 {fill:#222222;fill-rule:nonzero}
   ]]>
  </style>
 </defs>
 <g id="Layer_x0020_1">
  <metadata id="CorelCorpID_0Corel-Layer"/>
  <path class="fil0" d="M15225.78 11920.37c-953.52,0 -1870.61,383.21 -2544.78,1058.34 -674.11,675.13 -1056.73,1593.53 -1056.73,2548.43l1445.45 0c0,-571.75 224.72,-1119.14 631.63,-1526.64 406.91,-407.45 953.52,-632.53 1524.43,-632.53l0 -1447.6zm-965.67 -2809.95c-3170.3,480.5 -5514.59,3211.47 -5514.59,6416.72l1439.35 0c0,-1338.06 534.46,-2621.36 1475.84,-3570.28 947.42,-942.63 2228.93,-1477.87 3565.07,-1477.87l0 -717.73 -965.67 -650.84zm-1621.59 -1082.63l-1730.9 -1155.57 -4324.26 2889.04 0 5765.88 722.76 0c0,-3381.69 2137.81,-6392.37 5332.4,-7499.35z"/>
  <path class="fil1" d="M3212.36 17683.2l326.15 0 0 1730.13 -326.15 0 0 -1730.13zm-947.09 0l326.15 0 0 1730.13 -326.15 0 0 -1730.13zm151.1 715.11l1007.59 0 0 313.95 -1007.59 0 0 -313.95zm2098.93 1032.8c-125.54,0 -236,-26.36 -331.44,-79.09 -95.85,-52.84 -169.76,-127.21 -222.14,-223.8 -52.38,-96.31 -78.4,-207.92 -78.4,-334.73l0 -490.21c0,-127.1 26.02,-238.78 78.4,-334.96 52.38,-96.37 126.29,-171.03 222.14,-223.87 95.44,-52.78 205.9,-79.15 331.44,-79.15 125.09,0 235.55,26.37 330.99,79.15 95.85,52.84 169.76,127.5 222.14,223.87 52.38,96.18 78.4,207.86 78.4,334.96l0 490.21c0,126.81 -26.02,238.42 -78.4,334.73 -52.38,96.59 -126.29,170.96 -222.14,223.8 -95.44,52.73 -205.9,79.09 -330.99,79.09zm0 -326.09c58.43,0 110.07,-12.61 154.33,-37.36 44.67,-25.16 78.75,-60.56 103.16,-106.44 23.94,-46.28 36.15,-99 36.15,-159.56l0 -506.85c0,-60.15 -12.21,-113.34 -36.15,-159.27 -24.41,-46.23 -58.49,-81.57 -103.16,-106.73 -44.26,-24.86 -95.9,-37.41 -154.33,-37.41 -58.94,0 -110.52,12.55 -154.78,37.41 -44.67,25.16 -78.75,60.5 -103.16,106.73 -23.94,45.93 -36.15,99.12 -36.15,159.27l0 506.85c0,60.56 12.21,113.28 36.15,159.56 24.41,45.88 58.49,81.28 103.16,106.44 44.26,24.75 95.84,37.36 154.78,37.36zm2065.2 -1421.82l429.66 0 0 1730.13 -296.05 0 0 -1343.59 11.8 76.45 -331.05 1074.24 -287.93 0 -330.59 -1050.7 11.75 -99.99 0 1343.59 -296.05 0 0 -1730.13 429.31 0 329.78 1165.95 329.37 -1165.95zm810.67 0l326.15 0 0 1730.13 -326.15 0 0 -1730.13zm117.77 1416.18l1040.92 0 0 313.95 -1040.92 0 0 -313.95zm0 -702.22l910.19 0 0 313.95 -910.19 0 0 -313.95zm0 -713.96l1040.92 0 0 314.36 -1040.92 0 0 -314.36zm2345.07 1747.91c-131.59,0 -244.53,-25.09 -337.95,-75.52 -93.77,-50.37 -164.86,-123.88 -214.02,-220.06 -49.56,-96.31 -73.91,-212.81 -73.91,-349.36l0 -474.72c0,-136.42 24.35,-252.65 73.91,-349.29 49.16,-96.19 120.25,-169.76 214.02,-220.47 93.42,-50.83 206.36,-76.39 337.95,-76.39 108.39,0 205.91,23.49 291.62,70.23 85.65,46.74 156.34,114.9 212.41,204.29 55.6,88.99 94.57,196.64 115.7,322.93l0 0 -337.9 0 0 0c-12.6,-57.33 -32.06,-106.09 -58.88,-146.21 -26.37,-40.64 -58.49,-71.55 -96.25,-93.02 -37.76,-21.53 -80.01,-32.12 -126.7,-32.12 -60.96,0 -112.94,12.55 -155.99,37.41 -42.6,25.16 -75.53,61.71 -98.26,109.66 -22.34,47.84 -33.74,105.57 -33.74,172.98l0 474.72c0,67.47 11.4,125.15 33.74,172.64 22.73,47.54 55.66,83.69 98.26,108.85 43.05,24.75 95.03,37.36 155.99,37.36 47.49,0 90.55,-10.54 128.31,-31.2 38.17,-21.13 70.29,-52.1 96.65,-92.62 26.02,-40.24 45.13,-89.34 56.87,-147.48l0 0 337.9 0 0 0c-21.93,126.35 -61.31,233.94 -116.97,323.34 -56.01,88.87 -126.7,157.09 -212,203.83 -85.26,46.68 -182.37,70.22 -290.76,70.22zm1513.69 0c-125.55,0 -236.01,-26.36 -331.45,-79.09 -95.84,-52.84 -169.76,-127.21 -222.14,-223.8 -52.38,-96.31 -78.4,-207.92 -78.4,-334.73l0 -490.21c0,-127.1 26.02,-238.78 78.4,-334.96 52.38,-96.37 126.3,-171.03 222.14,-223.87 95.44,-52.78 205.9,-79.15 331.45,-79.15 125.08,0 235.55,26.37 330.99,79.15 95.84,52.84 169.75,127.5 222.13,223.87 52.39,96.18 78.4,207.86 78.4,334.96l0 490.21c0,126.81 -26.01,238.42 -78.4,334.73 -52.38,96.59 -126.29,170.96 -222.13,223.8 -95.44,52.73 -205.91,79.09 -330.99,79.09zm0 -326.09c58.42,0 110.06,-12.61 154.33,-37.36 44.66,-25.16 78.74,-60.56 103.15,-106.44 23.94,-46.28 36.15,-99 36.15,-159.56l0 -506.85c0,-60.15 -12.21,-113.34 -36.15,-159.27 -24.41,-46.23 -58.49,-81.57 -103.15,-106.73 -44.27,-24.86 -95.91,-37.41 -154.33,-37.41 -58.95,0 -110.52,12.55 -154.79,37.41 -44.67,25.16 -78.75,60.5 -103.15,106.73 -23.95,45.93 -36.15,99.12 -36.15,159.27l0 506.85c0,60.56 12.2,113.28 36.15,159.56 24.4,45.88 58.48,81.28 103.15,106.44 44.27,24.75 95.84,37.36 154.79,37.36zm976.73 -1421.82l398.4 0 643.73 1325.63 -28.38 30.85 0 -1356.48 311.47 0 0 1728.86 -400.87 0 -641.25 -1305.3 28.43 -30.86 0 1336.16 -311.53 0 0 -1728.86zm1939.31 141.67l326.1 0 0 1588.46 -326.1 0 0 -1588.46zm-471.1 -141.67l1268.35 0 0 314.36 -1268.35 0 0 -314.36zm1540.86 720.01l602.28 0c33.33,0 62.57,-8.47 87.73,-25.16 25.61,-16.69 45.07,-40.18 58.88,-71.44 14.22,-30.91 21.53,-66.65 22.34,-106.83l0 0c0,-40.64 -7.31,-76.33 -21.13,-107.19 -13.81,-30.96 -33.27,-54.91 -58.88,-71.49 -25.16,-16.69 -54.8,-24.87 -88.94,-24.87l-602.28 0 0 -314.35 628.3 0c95.04,0 178.68,21.53 250.98,64.24 72.3,43 128.3,103.5 167.73,181.5 39.78,78.4 59.7,169 59.7,272.16l0 0c0,103.09 -19.92,193.7 -59.7,271.64 -39.43,78.46 -95.84,138.5 -168.14,181.61 -72.7,42.6 -156.4,64.13 -250.57,64.13l-628.3 0 0 -313.95zm-129.58 -721.33l326.15 0 0 1731.45 -326.15 0 0 -1731.45zm493.89 981.69l348.43 -54.4 466.27 804.16 -394.77 0 -419.93 -749.76zm1690.75 767.54c-125.54,0 -236.01,-26.36 -331.45,-79.09 -95.84,-52.84 -169.75,-127.21 -222.13,-223.8 -52.39,-96.31 -78.4,-207.92 -78.4,-334.73l0 -490.21c0,-127.1 26.01,-238.78 78.4,-334.96 52.38,-96.37 126.29,-171.03 222.13,-223.87 95.44,-52.78 205.91,-79.15 331.45,-79.15 125.09,0 235.55,26.37 330.99,79.15 95.85,52.84 169.76,127.5 222.14,223.87 52.38,96.18 78.4,207.86 78.4,334.96l0 490.21c0,126.81 -26.02,238.42 -78.4,334.73 -52.38,96.59 -126.29,170.96 -222.14,223.8 -95.44,52.73 -205.9,79.09 -330.99,79.09zm0 -326.09c58.43,0 110.06,-12.61 154.33,-37.36 44.67,-25.16 78.75,-60.56 103.15,-106.44 23.95,-46.28 36.15,-99 36.15,-159.56l0 -506.85c0,-60.15 -12.2,-113.34 -36.15,-159.27 -24.4,-46.23 -58.48,-81.57 -103.15,-106.73 -44.27,-24.86 -95.9,-37.41 -154.33,-37.41 -58.94,0 -110.52,12.55 -154.78,37.41 -44.67,25.16 -78.75,60.5 -103.16,106.73 -23.94,45.93 -36.15,99.12 -36.15,159.27l0 506.85c0,60.56 12.21,113.28 36.15,159.56 24.41,45.88 58.49,81.28 103.16,106.44 44.26,24.75 95.84,37.36 154.78,37.36zm976.74 -1421.82l326.15 0 0 1730.13 -326.15 0 0 -1730.13zm145 1416.18l1013.69 0 0 313.95 -1013.69 0 0 -313.95z"/>
 </g>
</svg>
