<?xml version="1.0" encoding="UTF-8" standalone="no"?>
<svg xmlns="http://www.w3.org/2000/svg"
    xmlns:xlink="http://www.w3.org/1999/xlink" style="isolation:isolate" viewBox="0 0 850.394 141.732" width="850.394pt" height="141.732pt">
    <defs>
        <clipPath id="_clipPath_rwf1G4vWgcoId80s6CQ7hH42zJ0irSWs">
            <rect width="850.394" height="141.732"/>
        </clipPath>
    </defs>
    <g clip-path="url(#_clipPath_rwf1G4vWgcoId80s6CQ7hH42zJ0irSWs)">
        <path d=" M 207.669 46.357 L 219.31 46.357 L 219.31 108.109 L 207.669 108.109 L 207.669 46.357 Z  M 173.864 46.357 L 185.506 46.357 L 185.506 108.109 L 173.864 108.109 L 173.864 46.357 Z  M 179.257 71.883 L 215.221 71.883 L 215.221 83.089 L 179.257 83.089 L 179.257 71.883 Z  M 254.174 108.746 C 249.693 108.746 245.751 107.806 242.344 105.921 C 238.923 104.035 236.285 101.383 234.416 97.933 C 232.545 94.497 231.617 90.512 231.617 85.988 L 231.617 68.49 C 231.617 63.953 232.545 59.967 234.416 56.533 C 236.285 53.095 238.923 50.429 242.344 48.544 C 245.751 46.66 249.693 45.717 254.174 45.717 C 258.639 45.717 262.582 46.66 265.989 48.544 C 269.41 50.429 272.048 53.095 273.917 56.533 C 275.787 59.967 276.715 63.953 276.715 68.49 L 276.715 85.988 C 276.715 90.512 275.787 94.497 273.917 97.933 C 272.048 101.383 269.41 104.035 265.989 105.921 C 262.582 107.806 258.639 108.746 254.174 108.746 Z  M 254.174 97.106 C 256.26 97.106 258.103 96.657 259.683 95.773 C 261.277 94.873 262.494 93.612 263.365 91.974 C 264.219 90.323 264.655 88.439 264.655 86.277 L 264.655 68.187 C 264.655 66.041 264.219 64.143 263.365 62.503 C 262.494 60.852 261.277 59.59 259.683 58.692 C 258.103 57.806 256.26 57.358 254.174 57.358 C 252.071 57.358 250.23 57.806 248.65 58.692 C 247.055 59.59 245.839 60.852 244.968 62.503 C 244.113 64.143 243.678 66.041 243.678 68.187 L 243.678 86.277 C 243.678 88.439 244.113 90.323 244.968 91.974 C 245.839 93.612 247.055 94.873 248.65 95.773 C 250.23 96.657 252.071 97.106 254.174 97.106 Z  M 327.888 46.357 L 343.224 46.357 L 343.224 108.109 L 332.656 108.109 L 332.656 60.155 L 333.078 62.881 L 321.262 101.225 L 310.984 101.225 L 299.185 63.722 L 299.604 60.155 L 299.604 108.109 L 289.037 108.109 L 289.037 46.357 L 304.36 46.357 L 316.131 87.974 L 327.888 46.357 L 327.888 46.357 Z  M 356.823 46.357 L 368.464 46.357 L 368.464 108.109 L 356.823 108.109 L 356.823 46.357 Z  M 361.027 96.904 L 398.18 96.904 L 398.18 108.109 L 361.027 108.109 L 361.027 96.904 Z  M 361.027 71.84 L 393.514 71.84 L 393.514 83.045 L 361.027 83.045 L 361.027 71.84 Z  M 361.027 46.357 L 398.18 46.357 L 398.18 57.576 L 361.027 57.576 L 361.027 46.357 Z  M 444.729 108.746 C 440.032 108.746 436.001 107.849 432.667 106.051 C 429.32 104.253 426.782 101.629 425.028 98.193 C 423.258 94.759 422.389 90.598 422.389 85.726 L 422.389 68.78 C 422.389 63.91 423.258 59.765 425.028 56.314 C 426.782 52.88 429.32 50.253 432.667 48.444 C 436.001 46.632 440.032 45.717 444.729 45.717 C 448.598 45.717 452.079 46.557 455.138 48.226 C 458.195 49.891 460.718 52.327 462.719 55.517 C 464.704 58.692 466.095 62.534 466.849 67.042 L 466.849 67.042 L 454.788 67.042 L 454.788 67.042 C 454.339 64.997 453.644 63.257 452.687 61.823 C 451.745 60.372 450.599 59.271 449.252 58.503 C 447.904 57.734 446.395 57.358 444.729 57.358 C 442.553 57.358 440.698 57.806 439.161 58.692 C 437.641 59.59 436.465 60.895 435.654 62.606 C 434.857 64.315 434.45 66.374 434.45 68.78 L 434.45 85.726 C 434.45 88.134 434.857 90.191 435.654 91.889 C 436.465 93.583 437.641 94.873 439.161 95.773 C 440.698 96.657 442.553 97.106 444.729 97.106 C 446.424 97.106 447.961 96.729 449.309 95.991 C 450.671 95.237 451.818 94.134 452.758 92.685 C 453.687 91.249 454.369 89.497 454.788 87.424 L 454.788 87.424 L 466.849 87.424 L 466.849 87.424 C 466.066 91.931 464.661 95.773 462.674 98.962 C 460.675 102.136 458.152 104.571 455.107 106.24 C 452.064 107.905 448.598 108.746 444.729 108.746 L 444.729 108.746 Z  M 498.757 108.746 C 494.276 108.746 490.333 107.806 486.926 105.921 C 483.506 104.035 480.867 101.383 478.998 97.933 C 477.128 94.497 476.2 90.512 476.2 85.988 L 476.2 68.49 C 476.2 63.953 477.128 59.967 478.998 56.533 C 480.867 53.095 483.506 50.429 486.926 48.544 C 490.333 46.66 494.276 45.717 498.757 45.717 C 503.222 45.717 507.164 46.66 510.571 48.544 C 513.992 50.429 516.63 53.095 518.5 56.533 C 520.37 59.967 521.298 63.953 521.298 68.49 L 521.298 85.988 C 521.298 90.512 520.37 94.497 518.5 97.933 C 516.63 101.383 513.992 104.035 510.571 105.921 C 507.164 107.806 503.222 108.746 498.757 108.746 Z  M 498.757 97.106 C 500.842 97.106 502.686 96.657 504.265 95.773 C 505.859 94.873 507.076 93.612 507.947 91.974 C 508.802 90.323 509.237 88.439 509.237 86.277 L 509.237 68.187 C 509.237 66.041 508.802 64.143 507.947 62.503 C 507.076 60.852 505.859 59.59 504.265 58.692 C 502.686 57.806 500.842 57.358 498.757 57.358 C 496.653 57.358 494.812 57.806 493.232 58.692 C 491.638 59.59 490.421 60.852 489.55 62.503 C 488.696 64.143 488.26 66.041 488.26 68.187 L 488.26 86.277 C 488.26 88.439 488.696 90.323 489.55 91.974 C 490.421 93.612 491.638 94.873 493.232 95.773 C 494.812 96.657 496.653 97.106 498.757 97.106 Z  M 533.619 46.357 L 547.839 46.357 L 570.816 93.671 L 569.803 94.773 L 569.803 46.357 L 580.921 46.357 L 580.921 108.067 L 566.613 108.067 L 543.724 61.474 L 544.739 60.372 L 544.739 108.067 L 533.619 108.067 L 533.619 46.357 L 533.619 46.357 Z  M 602.839 51.415 L 614.479 51.415 L 614.479 108.109 L 602.839 108.109 L 602.839 51.415 Z  M 586.025 46.357 L 631.296 46.357 L 631.296 57.576 L 586.025 57.576 L 586.025 46.357 Z  M 641.022 72.057 L 662.519 72.057 C 663.709 72.057 664.753 71.753 665.651 71.159 C 666.565 70.563 667.259 69.723 667.753 68.607 C 668.26 67.506 668.521 66.23 668.55 64.794 L 668.55 64.794 C 668.55 63.346 668.289 62.069 667.796 60.968 C 667.302 59.865 666.608 59.011 665.694 58.416 C 664.796 57.821 663.738 57.531 662.519 57.531 L 641.022 57.531 L 641.022 46.31 L 663.448 46.31 C 666.84 46.31 669.825 47.079 672.406 48.602 C 674.987 50.138 676.986 52.298 678.393 55.082 C 679.813 57.881 680.524 61.112 680.524 64.794 L 680.524 64.794 C 680.524 68.475 679.813 71.71 678.393 74.491 C 676.986 77.29 674.972 79.436 672.392 80.972 C 669.797 82.494 666.809 83.263 663.448 83.263 L 641.022 83.263 L 641.022 72.057 L 641.022 72.057 Z  M 636.397 46.31 L 648.038 46.31 L 648.038 108.109 L 636.397 108.109 L 636.397 46.31 Z  M 654.025 81.35 L 666.462 79.407 L 683.105 108.109 L 669.014 108.109 L 654.025 81.35 L 654.025 81.35 Z  M 714.373 108.746 C 709.892 108.746 705.95 107.806 702.543 105.921 C 699.122 104.035 696.484 101.383 694.614 97.933 C 692.745 94.497 691.816 90.512 691.816 85.988 L 691.816 68.49 C 691.816 63.953 692.745 59.967 694.614 56.533 C 696.484 53.095 699.122 50.429 702.543 48.544 C 705.95 46.66 709.892 45.717 714.373 45.717 C 718.838 45.717 722.781 46.66 726.188 48.544 C 729.609 50.429 732.246 53.095 734.117 56.533 C 735.986 59.967 736.915 63.953 736.915 68.49 L 736.915 85.988 C 736.915 90.512 735.986 94.497 734.117 97.933 C 732.246 101.383 729.609 104.035 726.188 105.921 C 722.781 107.806 718.838 108.746 714.373 108.746 Z  M 714.373 97.106 C 716.459 97.106 718.302 96.657 719.882 95.773 C 721.476 94.873 722.693 93.612 723.564 91.974 C 724.419 90.323 724.854 88.439 724.854 86.277 L 724.854 68.187 C 724.854 66.041 724.419 64.143 723.564 62.503 C 722.693 60.852 721.476 59.59 719.882 58.692 C 718.302 57.806 716.459 57.358 714.373 57.358 C 712.27 57.358 710.429 57.806 708.849 58.692 C 707.254 59.59 706.038 60.852 705.167 62.503 C 704.312 64.143 703.876 66.041 703.876 68.187 L 703.876 86.277 C 703.876 88.439 704.312 90.323 705.167 91.974 C 706.038 93.612 707.254 94.873 708.849 95.773 C 710.429 96.657 712.27 97.106 714.373 97.106 Z  M 749.236 46.357 L 760.878 46.357 L 760.878 108.109 L 749.236 108.109 L 749.236 46.357 Z  M 754.412 96.904 L 790.593 96.904 L 790.593 108.109 L 754.412 108.109 L 754.412 96.904 Z " fill="rgb(34,34,34)"/>
        <path d=" M 142.803 73.47 C 133.646 73.47 124.838 77.15 118.363 83.634 C 111.889 90.118 108.214 98.939 108.214 108.11 L 122.096 108.11 C 122.096 102.619 124.255 97.361 128.163 93.447 C 132.071 89.535 137.32 87.373 142.803 87.373 L 142.803 73.47 L 142.803 73.47 Z  M 133.529 46.482 C 103.081 51.097 80.566 77.326 80.566 108.11 L 94.39 108.11 C 94.39 95.259 99.523 82.934 108.564 73.82 C 117.663 64.767 129.971 59.626 142.803 59.626 L 142.803 52.733 L 133.529 46.482 Z  M 117.955 36.085 L 101.331 24.987 L 59.8 52.733 L 59.8 108.11 L 66.742 108.11 C 66.742 75.631 87.274 46.716 117.955 36.085 L 117.955 36.085 Z " fill-rule="evenodd" fill="rgb(34,34,34)"/>
    </g>
</svg>