<?xml version="1.0" encoding="UTF-8"?>
<!DOCTYPE svg PUBLIC "-//W3C//DTD SVG 1.1//EN" "http://www.w3.org/Graphics/SVG/1.1/DTD/svg11.dtd">
<!-- Creator: CorelDRAW 2018 -->
<svg xmlns="http://www.w3.org/2000/svg" xml:space="preserve" width="210mm" height="297mm" version="1.1" style="shape-rendering:geometricPrecision; text-rendering:geometricPrecision; image-rendering:optimizeQuality; fill-rule:evenodd; clip-rule:evenodd"
viewBox="0 0 21000 29700"
 xmlns:xlink="http://www.w3.org/1999/xlink">
 <defs>
  <style type="text/css">
   <![CDATA[
    .fil0 {fill:#2B2A29}
   ]]>
  </style>
 </defs>
 <g id="Layer_x0020_1">
  <metadata id="CorelCorpID_0Corel-Layer"/>
  <path class="fil0" d="M18753.23 14873.35c-1783.03,0 -3493.09,708.37 -4753.86,1969.05 -1260.85,1260.85 -1969.13,2970.91 -1969.13,4754.02l2689.23 0c0,-1069.87 424.97,-2095.97 1181.46,-2852.46 756.5,-756.41 1782.52,-1181.29 2852.3,-1181.29l0 -2689.32zm-4832.9 -7255.69l-3234.7 -2156.52 -8067.6 5378.37 0 10756.91 1344.61 0c0,-6305.9 3997.96,-11918.33 9957.69,-13978.76zm3020.67 2013.75c-5916.13,896.1 -10289.21,5981.39 -10289.21,11965.01l2689.23 0c0,-2496.27 991.67,-4890.28 2756.8,-6655.41 1765.12,-1765.21 4159.14,-2756.89 6655.41,-2756.89l0 -1344.61 -1812.23 -1208.1z"/>
 </g>
</svg>
