<?xml version="1.0" encoding="UTF-8"?>
<!DOCTYPE svg PUBLIC "-//W3C//DTD SVG 1.1//EN" "http://www.w3.org/Graphics/SVG/1.1/DTD/svg11.dtd">
<!-- Creator: CorelDRAW 2018 -->
<svg xmlns="http://www.w3.org/2000/svg" xml:space="preserve" width="297mm" height="210mm" version="1.1" style="shape-rendering:geometricPrecision; text-rendering:geometricPrecision; image-rendering:optimizeQuality; fill-rule:evenodd; clip-rule:evenodd"
viewBox="0 0 29700 21000"
 xmlns:xlink="http://www.w3.org/1999/xlink">
 <defs>
  <style type="text/css">
   <![CDATA[
    .fil1 {fill:#2B2A29}
    .fil0 {fill:#2B2A29;fill-rule:nonzero}
   ]]>
  </style>
 </defs>
 <g id="Layer_x0020_1">
  <metadata id="CorelCorpID_0Corel-Layer"/>
  <path class="fil0" d="M7048.45 8770.06l410.68 0 0 2178.5 -410.68 0 0 -2178.5zm-1192.54 0l410.68 0 0 2178.5 -410.68 0 0 -2178.5zm190.26 900.5l1268.73 0 0 395.33 -1268.73 0 0 -395.33zm2642.9 1300.45c-158.08,0 -297.17,-33.17 -417.35,-99.65 -120.68,-66.54 -213.74,-160.1 -279.69,-281.8 -65.98,-121.21 -98.72,-261.81 -98.72,-421.41l0 -617.26c0,-160.06 32.74,-300.67 98.72,-421.84 65.95,-121.29 159.01,-215.34 279.69,-281.82 120.18,-66.46 259.27,-99.73 417.35,-99.73 157.52,0 296.61,33.27 416.79,99.73 120.68,66.48 213.74,160.53 279.69,281.82 65.98,121.17 98.72,261.78 98.72,421.84l0 617.26c0,159.6 -32.74,300.2 -98.72,421.41 -65.95,121.7 -159.01,215.26 -279.69,281.8 -120.18,66.48 -259.27,99.65 -416.79,99.65zm0 -410.61c73.58,0 138.59,-15.84 194.33,-47.03 56.24,-31.75 99.16,-76.25 129.88,-134.03 30.16,-58.25 45.53,-124.71 45.53,-200.98l0 -638.19c0,-75.68 -15.37,-142.65 -45.53,-200.51 -30.72,-58.25 -73.64,-102.75 -129.88,-134.44 -55.74,-31.25 -120.75,-47.04 -194.33,-47.04 -74.21,0 -139.15,15.79 -194.89,47.04 -56.25,31.69 -99.16,76.19 -129.89,134.44 -30.15,57.86 -45.52,124.83 -45.52,200.51l0 638.19c0,76.27 15.37,142.73 45.52,200.98 30.73,57.78 73.64,102.28 129.89,134.03 55.74,31.19 120.68,47.03 194.89,47.03zm2600.45 -1790.34l541.01 0 0 2178.5 -372.8 0 0 -1691.72 14.87 96.17 -416.84 1352.67 -362.56 0 -416.26 -1323.02 14.78 -125.82 0 1691.72 -372.77 0 0 -2178.5 540.57 0 415.26 1468.17 414.74 -1468.17zm1020.75 0l410.7 0 0 2178.5 -410.7 0 0 -2178.5zm148.32 1783.2l1310.68 0 0 395.3 -1310.68 0 0 -395.3zm0 -884.21l1146.06 0 0 395.3 -1146.06 0 0 -395.3zm0 -898.99l1310.68 0 0 395.8 -1310.68 0 0 -395.8zm2952.83 2200.95c-165.7,0 -307.91,-31.65 -425.54,-95.08 -118.07,-63.4 -207.59,-155.98 -269.48,-277.19 -62.42,-121.16 -93.08,-267.96 -93.08,-439.8l0 -597.84c0,-171.79 30.66,-318.04 93.08,-439.75 61.89,-121.17 151.41,-213.83 269.48,-277.65 117.63,-63.94 259.84,-96.2 425.54,-96.2 136.48,0 259.27,29.63 367.19,88.51 107.86,58.75 196.85,144.67 267.46,257.22 70.02,111.99 119.09,247.52 145.68,406.57l0 0 -425.46 0 0 0c-15.87,-72.14 -40.36,-133.53 -74.14,-184.13 -33.21,-51.17 -73.64,-90.02 -121.19,-117.12 -47.55,-27.13 -100.76,-40.37 -159.54,-40.37 -76.76,0 -142.2,15.79 -196.43,47.04 -53.63,31.69 -95.1,77.71 -123.72,138.08 -28.13,60.29 -42.47,132.94 -42.47,217.8l0 597.84c0,84.95 14.34,157.5 42.47,217.39 28.62,59.78 70.09,105.29 123.72,137.04 54.23,31.19 119.67,47.03 196.43,47.03 59.79,0 114.01,-13.33 161.56,-39.36 48.05,-26.6 88.51,-65.49 121.69,-116.62 32.77,-50.67 56.84,-112.47 71.62,-185.61l0 0 425.46 0 0 0c-27.6,159.01 -77.18,294.56 -147.28,407.06 -70.52,111.96 -159.53,197.88 -266.95,256.74 -107.34,58.75 -229.62,88.4 -366.1,88.4zm1905.97 0c-158.08,0 -297.17,-33.17 -417.35,-99.65 -120.66,-66.54 -213.74,-160.1 -279.69,-281.8 -65.96,-121.21 -98.72,-261.81 -98.72,-421.41l0 -617.26c0,-160.06 32.76,-300.67 98.72,-421.84 65.95,-121.29 159.03,-215.34 279.69,-281.82 120.18,-66.46 259.27,-99.73 417.35,-99.73 157.52,0 296.61,33.27 416.79,99.73 120.68,66.48 213.74,160.53 279.71,281.82 65.96,121.17 98.72,261.78 98.72,421.84l0 617.26c0,159.6 -32.76,300.2 -98.72,421.41 -65.97,121.7 -159.03,215.26 -279.71,281.8 -120.18,66.48 -259.27,99.65 -416.79,99.65zm0 -410.61c73.58,0 138.61,-15.84 194.33,-47.03 56.24,-31.75 99.16,-76.25 129.89,-134.03 30.15,-58.25 45.52,-124.71 45.52,-200.98l0 -638.19c0,-75.68 -15.37,-142.65 -45.52,-200.51 -30.73,-58.25 -73.65,-102.75 -129.89,-134.44 -55.72,-31.25 -120.75,-47.04 -194.33,-47.04 -74.2,0 -139.15,15.79 -194.89,47.04 -56.25,31.69 -99.16,76.19 -129.89,134.44 -30.15,57.86 -45.52,124.83 -45.52,200.51l0 638.19c0,76.27 15.37,142.73 45.52,200.98 30.73,57.78 73.64,102.28 129.89,134.03 55.74,31.19 120.69,47.03 194.89,47.03zm1229.88 -1790.34l501.65 0 810.57 1669.15 -35.73 38.87 0 -1708.02 392.2 0 0 2176.99 -504.76 0 -807.45 -1643.7 35.79 -38.85 0 1682.55 -392.27 0 0 -2176.99zm2441.93 178.44l410.61 0 0 2000.06 -410.61 0 0 -2000.06zm-593.19 -178.44l1597.07 0 0 395.8 -1597.07 0 0 -395.8zm1940.19 906.65l758.37 0c41.97,0 78.8,-10.72 110.47,-31.69 32.26,-21.02 56.75,-50.66 74.15,-90.02 17.9,-38.83 27.12,-83.84 28.13,-134.52l0 0c0,-51.07 -9.2,-96.11 -26.6,-134.96 -17.41,-38.9 -41.9,-69.05 -74.16,-90.03 -31.68,-21.01 -68.99,-31.23 -111.99,-31.23l-758.37 0 0 -395.83 791.14 0c119.67,0 224.98,27.13 316.02,80.85 91.03,54.18 161.57,130.39 211.21,228.6 50.1,98.72 75.18,212.71 75.18,342.6l0 0c0,129.88 -25.08,244 -75.18,342.11 -49.64,98.74 -120.69,174.42 -211.72,228.63 -91.54,53.7 -196.94,80.8 -315.51,80.8l-791.14 0 0 -395.31zm-163.16 -908.28l410.68 0 0 2180.13 -410.68 0 0 -2180.13zm621.89 1236.12l438.75 -68.55 587.1 1012.56 -497.08 0 -528.77 -944.01zm2128.94 966.46c-158.08,0 -297.17,-33.17 -417.35,-99.65 -120.67,-66.54 -213.74,-160.1 -279.7,-281.8 -65.95,-121.21 -98.72,-261.81 -98.72,-421.41l0 -617.26c0,-160.06 32.77,-300.67 98.72,-421.84 65.96,-121.29 159.03,-215.34 279.7,-281.82 120.18,-66.46 259.27,-99.73 417.35,-99.73 157.51,0 296.6,33.27 416.78,99.73 120.69,66.48 213.74,160.53 279.72,281.82 65.95,121.17 98.72,261.78 98.72,421.84l0 617.26c0,159.6 -32.77,300.2 -98.72,421.41 -65.98,121.7 -159.03,215.26 -279.72,281.8 -120.18,66.48 -259.27,99.65 -416.78,99.65zm0 -410.61c73.58,0 138.6,-15.84 194.32,-47.03 56.25,-31.75 99.17,-76.25 129.91,-134.03 30.14,-58.25 45.51,-124.71 45.51,-200.98l0 -638.19c0,-75.68 -15.37,-142.65 -45.51,-200.51 -30.74,-58.25 -73.66,-102.75 -129.91,-134.44 -55.72,-31.25 -120.74,-47.04 -194.32,-47.04 -74.21,0 -139.15,15.79 -194.89,47.04 -56.25,31.69 -99.17,76.19 -129.89,134.44 -30.16,57.86 -45.53,124.83 -45.53,200.51l0 638.19c0,76.27 15.37,142.73 45.53,200.98 30.72,57.78 73.64,102.28 129.89,134.03 55.74,31.19 120.68,47.03 194.89,47.03zm1229.88 -1790.34l410.7 0 0 2178.5 -410.7 0 0 -2178.5zm182.59 1783.2l1276.4 0 0 395.3 -1276.4 0 0 -395.3z"/>
  <path class="fil1" d="M4760.15 9726.55c-323.06,0 -633.78,129.84 -862.2,358.58 -228.4,228.74 -358.03,539.91 -358.03,863.44l489.73 0c0,-193.71 76.14,-379.18 214.01,-517.25 137.86,-138.04 323.06,-214.3 516.49,-214.3l0 -490.47zm-327.18 -952.05c-1074.14,162.8 -1868.41,1088.09 -1868.41,2174.07l487.67 0c0,-453.35 181.08,-888.15 500.03,-1209.66 321,-319.37 755.19,-500.72 1207.89,-500.72l0 -243.17 -327.18 -220.52zm-549.41 -366.81l-586.46 -391.52 -1465.11 978.85 0 1953.55 244.88 0c0,-1145.76 724.32,-2165.82 1806.69,-2540.88z"/>
 </g>
</svg>
